<?xml version="1.0" encoding="UTF-8" standalone="no"?>
<svg
   xmlns:dc="http://purl.org/dc/elements/1.1/"
   xmlns:cc="http://creativecommons.org/ns#"
   xmlns:rdf="http://www.w3.org/1999/02/22-rdf-syntax-ns#"
   xmlns:svg="http://www.w3.org/2000/svg"
   xmlns="http://www.w3.org/2000/svg"
   viewBox="0 0 552.20935 68.759735"
   height="68.759735"
   width="552.20935"
   xml:space="preserve"
   id="svg2"
   version="1.1"><metadata
     id="metadata8"><rdf:RDF><cc:Work
         rdf:about=""><dc:format>image/svg+xml</dc:format><dc:type
           rdf:resource="http://purl.org/dc/dcmitype/StillImage" /></cc:Work></rdf:RDF></metadata><defs
     id="defs6"><clipPath
       id="clipPath18"
       clipPathUnits="userSpaceOnUse"><path
         id="path16"
         d="M 0,51.57 H 414.157 V 0 H 0 Z" /></clipPath></defs><g
     transform="matrix(1.3333333,0,0,-1.3333333,0,68.759733)"
     id="g10"><g
       id="g12"><g
         clip-path="url(#clipPath18)"
         id="g14"><g
           transform="translate(361.1768,23.2485)"
           id="g20"><path
             id="path22"
             style="fill:#373535;fill-opacity:1;fill-rule:nonzero;stroke:none"
             d="m 0,0 c -3.411,0 -5.803,2.785 -5.803,6.798 0,4.012 2.392,6.797 5.803,6.797 3.41,0 5.803,-2.785 5.803,-6.797 C 5.803,2.785 3.41,0 0,0 m 5.803,-15.319 v 0 c 0,-2.103 -2.34,-3.562 -5.794,-3.562 -3.453,0 -5.793,1.459 -5.793,3.562 0,2.102 2.34,3.562 5.793,3.562 3.454,0 5.794,-1.46 5.794,-3.562 M 0,18.072 v 0 c -6.89,0 -11.977,-4.619 -11.977,-11.274 0,-3.125 1.122,-5.8 3.025,-7.76 -1.653,-1.057 -2.969,-2.91 -3.006,-5.561 0.026,-1.908 0.716,-3.402 1.716,-4.484 -1.099,-1.21 -1.716,-2.673 -1.716,-4.312 0,-4.681 5.015,-7.93 11.967,-7.93 6.953,0 11.968,3.249 11.968,7.93 0,4.68 -5.015,7.928 -11.968,7.928 -2.494,0 -4.737,-0.42 -6.59,-1.172 -0.338,0.585 -0.534,1.275 -0.534,2.039 v 0.001 0 c 0,1.358 0.619,2.484 1.553,3.198 1.639,-0.743 3.521,-1.152 5.562,-1.152 6.889,0 11.977,4.62 11.977,11.275 0,2.672 -0.823,5.015 -2.25,6.865 h 6.176 v 4.409 z" /></g><path
           id="path24"
           style="fill:#373535;fill-opacity:1;fill-rule:nonzero;stroke:none"
           d="m 310.05,14.423 h 5.931 v 26.898 h -5.931 z" /><g
           transform="translate(392.9092,39.2573)"
           id="g26"><path
             id="path28"
             style="fill:#373535;fill-opacity:1;fill-rule:nonzero;stroke:none"
             d="m 0,0 h -5.37 v -8.536 h -8.7 v -5.041 h 8.7 v -9.195 H 0 v 9.195 h 8.7 v 5.041 H 0 Z" /></g><path
           id="path30"
           style="fill:#373535;fill-opacity:1;fill-rule:nonzero;stroke:none"
           d="m 310.05,46.823 h 5.931 v 4.701 h -5.931 z" /><g
           transform="translate(10.27,46.8227)"
           id="g32"><path
             id="path34"
             style="fill:#373535;fill-opacity:1;fill-rule:nonzero;stroke:none"
             d="m 0,0 c 5.711,-0.003 9.285,-3.038 9.285,-8.558 h 6.499 c 0,7.315 -5.05,13.076 -13.812,13.295 l -0.006,0.01 h -5.85 -4.351 -2.035 V -32.4 h 6.386 v 10.535 h 5.85 l 0.006,0.01 c 8.762,0.219 13.812,5.98 13.812,13.295 H 9.285 c 0,-5.523 -3.578,-8.558 -9.295,-8.558 H -3.884 V 0 Z" /></g><g
           transform="translate(407.7725,51.5698)"
           id="g36"><path
             id="path38"
             style="fill:#373535;fill-opacity:1;fill-rule:nonzero;stroke:none"
             d="M 0,0 H -6.163 V -4.747 H 0 v -32.4 H 6.385 V -4.747 0 Z" /></g><g
           transform="translate(129.3252,41.3203)"
           id="g40"><path
             id="path42"
             style="fill:#373535;fill-opacity:1;fill-rule:nonzero;stroke:none"
             d="m 0,0 h -6.202 l -9.134,-10.88 h -1.888 v 21.13 h -5.931 v -37.147 h 5.931 v 11.607 h 1.914 l 8.377,-11.607 h 7.016 l -10.517,14.436 z" /></g><g
           transform="translate(263.3408,41.3203)"
           id="g44"><path
             id="path46"
             style="fill:#373535;fill-opacity:1;fill-rule:nonzero;stroke:none"
             d="m 0,0 h -6.202 l -9.134,-10.88 h -1.888 v 21.13 h -5.931 v -37.147 h 5.931 v 11.607 h 1.914 l 8.377,-11.607 h 7.017 l -10.518,14.436 z" /></g><g
           transform="translate(36.3154,38.4961)"
           id="g48"><path
             id="path50"
             style="fill:#373535;fill-opacity:1;fill-rule:nonzero;stroke:none"
             d="M 0,0 V 2.824 H -5.931 V -24.073 H 0 v 20.358 c 1.64,1.086 4.409,2.583 7.23,2.583 1.606,0 2.428,-0.378 2.428,-0.378 v 4.921 c 0,0 -0.452,0.14 -1.605,0.14 C 5.587,3.551 2.444,2.308 0,0" /></g><g
           transform="translate(226.5713,38.4961)"
           id="g52"><path
             id="path54"
             style="fill:#373535;fill-opacity:1;fill-rule:nonzero;stroke:none"
             d="M 0,0 V 2.824 H -5.931 V -24.073 H 0 v 20.358 c 1.641,1.086 4.409,2.583 7.23,2.583 1.606,0 2.428,-0.378 2.428,-0.378 v 4.921 c 0,0 -0.452,0.14 -1.604,0.14 C 5.587,3.551 2.444,2.308 0,0" /></g><g
           transform="translate(335.9072,42.0473)"
           id="g56"><path
             id="path58"
             style="fill:#373535;fill-opacity:1;fill-rule:nonzero;stroke:none"
             d="m 0,0 c -3.004,0 -5.888,-1.227 -8.46,-3.555 v 2.828 h -5.932 v -26.897 h 5.932 v 20.41 c 1.52,1.1 3.944,2.531 6.274,2.531 3.497,0 4.897,-1.789 4.897,-5.349 V -27.624 H 8.643 V -9.122 L 8.638,-9.12 c 10e-4,0.027 0.005,0.052 0.005,0.08 C 8.643,-3.641 5.848,0 0,0" /></g><g
           transform="translate(140.0684,48.6562)"
           id="g60"><path
             id="path62"
             style="fill:#373535;fill-opacity:1;fill-rule:nonzero;stroke:none"
             d="M 0,0 H -1.109 L -1.11,-0.002 -9.902,-10.63 v -1.108 h 3.97 v -11.503 -0.318 -3.944 c 0,-5.033 2.407,-7.459 7.962,-7.459 2.616,0 4.707,0.729 4.707,0.729 v 4.409 c 0,0 -1.842,-0.455 -3.104,-0.455 -2.789,0 -3.633,1.248 -3.633,3.645 v 3.075 0.318 11.503 h 6.737 v 4.402 l -6.737,0 z" /></g><g
           transform="translate(299.7451,48.6562)"
           id="g64"><path
             id="path66"
             style="fill:#373535;fill-opacity:1;fill-rule:nonzero;stroke:none"
             d="M 0,0 H -1.108 L -1.11,-0.002 -9.901,-10.63 v -1.108 h 3.97 v -11.503 -0.318 -3.944 c 0,-5.033 2.407,-7.459 7.962,-7.459 2.616,0 4.706,0.729 4.706,0.729 v 4.409 c 0,0 -1.842,-0.455 -3.104,-0.455 -2.789,0 -3.633,1.248 -3.633,3.645 v 3.075 0.318 11.503 h 6.737 v 4.402 l -6.737,0 z" /></g><g
           transform="translate(89.7895,37.3877)"
           id="g68"><path
             id="path70"
             style="fill:#373535;fill-opacity:1;fill-rule:nonzero;stroke:none"
             d="M 0,0 C 3.729,0 5.931,-2.465 6.091,-6.947 H -6.367 C -5.631,-2.628 -3.04,0 0,0 m 0.46,4.66 c -7.831,0 -13.346,-6.103 -13.346,-14.179 0,-8.844 6.04,-14.178 14.48,-14.178 6.698,0 9.191,2.581 9.191,2.581 v 4.486 c 0,0 -2.872,-2.408 -7.977,-2.408 -5.054,0 -8.529,3.026 -9.245,7.682 h 18.272 l -0.016,0.09 0.157,-0.09 c 0,0 0.355,1.458 0.355,3.556 0,7.154 -4.439,12.46 -11.871,12.46" /></g><g
           transform="translate(275.6562,37.3877)"
           id="g72"><path
             id="path74"
             style="fill:#373535;fill-opacity:1;fill-rule:nonzero;stroke:none"
             d="M 0,0 C 3.729,0 5.932,-2.465 6.092,-6.947 H -6.367 C -5.631,-2.628 -3.039,0 0,0 m 0.46,4.66 c -7.83,0 -13.346,-6.103 -13.346,-14.179 0,-8.844 6.04,-14.178 14.48,-14.178 6.698,0 9.19,2.581 9.19,2.581 v 4.486 c 0,0 -2.871,-2.408 -7.975,-2.408 -5.054,0 -8.53,3.026 -9.246,7.682 h 18.272 l -0.017,0.09 0.158,-0.09 c 0,0 0.355,1.458 0.355,3.556 0,7.154 -4.439,12.46 -11.871,12.46" /></g><g
           transform="translate(202.019,18.0996)"
           id="g76"><path
             id="path78"
             style="fill:#373535;fill-opacity:1;fill-rule:nonzero;stroke:none"
             d="m 0,0 c -3.279,0 -4.767,1.973 -4.767,4.657 0,2.684 1.488,4.657 4.767,4.657 2.893,0 5.683,-1.556 7.156,-2.537 V 2.538 C 5.683,1.556 2.893,0 0,0 m 0.521,23.948 c -5.8,0 -8.975,-2.117 -8.975,-2.117 V 16.88 c 0,0 3.256,2.408 7.825,2.408 5.691,0 7.785,-3.112 7.785,-8.084 v -0.843 c -1.565,1.37 -4.478,3.363 -8.181,3.363 -6.31,0 -9.92,-3.94 -9.92,-9.067 0,-5.126 3.61,-9.066 9.92,-9.066 3.703,0 6.616,1.993 8.181,3.362 v -2.63 h 5.931 V 12.661 H 13.059 C 12.707,19.242 8.583,23.948 0.521,23.948" /></g><g
           transform="translate(60.312,18.3496)"
           id="g80"><path
             id="path82"
             style="fill:#373535;fill-opacity:1;fill-rule:nonzero;stroke:none"
             d="m 0,0 c -4.223,0 -7.241,3.726 -7.241,9.519 0,5.793 3.018,9.519 7.241,9.519 4.223,0 7.241,-3.726 7.241,-9.519 C 7.241,3.726 4.223,0 0,0 m 0,23.698 v 0 c -7.668,0 -13.415,-5.498 -13.415,-14.179 0,-8.681 5.747,-14.178 13.415,-14.178 7.668,0 13.415,5.497 13.415,14.178 C 13.415,18.2 7.668,23.698 0,23.698" /></g><g
           transform="translate(178.8486,42.0473)"
           id="g84"><path
             id="path86"
             style="fill:#373535;fill-opacity:1;fill-rule:nonzero;stroke:none"
             d="M 0,0 C -2.8,0 -5.378,-1.751 -7.718,-4.373 -8.806,-1.601 -11.189,0 -14.952,0 c -2.527,0 -4.873,-1.426 -7.026,-3.63 v 2.903 h -5.931 v -26.897 h 5.931 v 20.45 c 1.336,1.209 3.186,2.491 5.021,2.491 2.988,0 4.001,-1.262 4.001,-4.821 v -18.12 h 5.931 v 19.522 l -0.006,10e-4 c -0.008,0.299 -0.025,0.59 -0.051,0.875 1.34,1.224 3.216,2.543 5.077,2.543 2.983,0 3.998,-1.258 4.001,-4.804 v -18.137 h 5.931 v 19.107 0 c 0,0.002 0,0.003 0,0.004 C 7.927,-3.248 5.364,0 0,0" /></g></g></g></g></svg>